<?xml version="1.0" standalone="no"?>
<!DOCTYPE svg PUBLIC "-//W3C//DTD SVG 20010904//EN"
 "http://www.w3.org/TR/2001/REC-SVG-20010904/DTD/svg10.dtd">
<svg version="1.0" xmlns="http://www.w3.org/2000/svg"
 width="63.000000pt" height="56.000000pt" viewBox="0 0 63.000000 56.000000"
 preserveAspectRatio="xMidYMid meet">
 
<metadata>
Created by potrace 1.13, written by Peter Selinger 2001-2015
</metadata>
<g transform="translate(0.000000,56.000000) scale(0.100000,-0.100000)"
fill="#000000" stroke="none">
<path d="M447 510 c-20 -19 -37 -40 -37 -47 0 -7 -9 -17 -21 -23 -16 -9 -19
-17 -14 -42 l7 -31 -46 7 c-42 7 -48 5 -76 -24 -16 -17 -30 -35 -30 -40 0 -14
17 -21 34 -14 12 5 14 10 6 19 -8 10 -5 17 12 29 28 20 84 21 91 2 6 -15 -16
-40 -26 -30 -3 3 -3 -4 0 -17 4 -15 3 -20 -5 -15 -11 6 -16 -6 -13 -26 0 -5
-17 -8 -38 -8 -45 0 -92 -15 -103 -33 -5 -8 -8 -7 -8 5 0 9 9 20 21 23 11 4
18 9 16 12 -9 9 -47 -17 -47 -32 0 -8 14 -21 30 -30 17 -9 30 -17 30 -18 0 -2
-14 -4 -30 -5 -24 -2 -34 4 -50 30 -11 18 -22 45 -25 60 -8 34 -16 35 -52 3
-28 -25 -28 -25 -4 -22 18 1 31 -9 56 -43 29 -41 36 -45 70 -44 21 1 43 8 49
15 6 8 28 22 49 32 38 17 39 17 68 -7 16 -14 38 -28 50 -31 17 -6 20 -12 15
-39 -4 -18 -3 -47 0 -64 7 -36 31 -42 74 -17 24 13 24 14 4 15 -30 0 -41 17
-49 72 -6 36 -12 48 -25 48 -25 0 -82 42 -91 68 -7 19 -5 22 15 22 27 0 61 34
50 51 -7 12 21 10 96 -6 19 -4 29 1 43 19 26 37 27 71 2 71 -16 0 -19 -6 -17
-26 4 -43 -16 -51 -84 -35 -42 10 -54 16 -41 21 9 4 26 5 36 2 10 -2 24 -1 31
3 17 10 4 60 -15 60 -8 0 -15 4 -15 10 0 15 38 31 66 28 15 -2 29 3 31 10 8
20 -52 14 -81 -9 -15 -12 -30 -19 -33 -15 -10 10 19 36 64 57 23 11 43 21 43
23 0 2 -10 5 -22 8 -16 2 -35 -7 -61 -32z"/>
</g>
</svg>
