<?xml version="1.0" standalone="no"?>
<!DOCTYPE svg PUBLIC "-//W3C//DTD SVG 20010904//EN"
 "http://www.w3.org/TR/2001/REC-SVG-20010904/DTD/svg10.dtd">
<svg version="1.0" xmlns="http://www.w3.org/2000/svg"
 width="73.000000pt" height="63.000000pt" viewBox="0 0 73.000000 63.000000"
 preserveAspectRatio="xMidYMid meet">
<defs> <filter>
 	<feColorMatrix in="SourceGraphic" type="matrix" values="-1 0 0 0 1 
                                                              0 -1 0 0 1 
                                                              0 0 -1 0 1
                                                              0 0 0 1 0"/>
 </filter></defs>
<metadata>
Created by potrace 1.13, written by Peter Selinger 2001-2015
</metadata>
<g transform="translate(0.000000,63.000000) scale(0.100000,-0.100000)"
fill="#000000" stroke="none">
<path d="M30 590 c0 -25 4 -30 25 -30 24 0 25 -3 26 -57 1 -32 1 -62 0 -67 -1
-5 5 -4 13 4 11 8 16 30 16 66 l0 54 39 0 c41 0 101 -17 101 -29 0 -4 -20 -21
-44 -38 -121 -85 -142 -268 -43 -380 96 -109 274 -115 376 -12 50 49 75 112
74 186 -1 78 -29 139 -91 193 -42 38 -44 42 -29 57 12 12 40 18 102 21 l85 5
0 28 0 29 -325 0 -325 0 0 -30z m418 -95 c18 -20 19 -25 6 -25 -21 0 -84 -63
-84 -84 0 -24 -15 -19 -28 9 -6 13 -30 36 -52 51 -39 26 -40 28 -22 44 23 22
43 27 108 29 42 1 54 -3 72 -24z m67 -80 c50 -49 14 -131 -53 -119 -37 7 -53
25 -59 67 -4 29 0 38 23 56 35 27 59 27 89 -4z m-217 -10 c23 -28 19 -64 -9
-94 -34 -37 -89 -23 -107 27 -25 71 70 126 116 67z m-112 -124 c14 -11 39 -21
53 -21 32 0 83 -49 104 -100 l15 -34 15 36 c22 53 80 108 113 108 18 0 40 12
61 32 l33 32 0 -40 c0 -138 -118 -248 -246 -230 -132 18 -202 109 -194 251 1
27 2 28 10 9 4 -12 21 -31 36 -43z"/>
</g>
</svg>
