<?xml version="1.0" standalone="no"?>
<!DOCTYPE svg PUBLIC "-//W3C//DTD SVG 20010904//EN"
 "http://www.w3.org/TR/2001/REC-SVG-20010904/DTD/svg10.dtd">
<svg version="1.0" xmlns="http://www.w3.org/2000/svg"
 width="413.000000pt" height="413.000000pt" viewBox="0 0 413.000000 413.000000"
 preserveAspectRatio="xMidYMid meet">
<metadata>
Created by potrace 1.13, written by Peter Selinger 2001-2015
</metadata>
<g transform="translate(0.000000,413.000000) scale(0.100000,-0.100000)"
fill="#000000" stroke="none">
<path d="M182 4048 c-17 -17 -17 -349 0 -366 8 -8 51 -12 128 -12 77 0 120 -4
128 -12 9 -9 12 -99 12 -344 l0 -331 30 -31 c35 -37 38 -58 11 -67 -11 -3 -25
-13 -32 -21 -10 -12 -9 -18 4 -31 13 -13 19 -14 31 -3 9 7 16 17 16 22 0 5 25
34 55 65 l55 57 0 328 c0 208 4 336 10 349 10 18 24 19 242 19 l232 0 32 -36
c29 -31 36 -34 68 -28 51 9 83 -2 98 -34 10 -21 22 -28 53 -32 29 -4 43 -12
53 -30 19 -38 7 -74 -41 -124 -34 -36 -51 -46 -75 -46 -22 0 -35 -7 -43 -22
-7 -13 -24 -35 -38 -49 -14 -15 -32 -34 -39 -43 -7 -9 -27 -16 -47 -16 -25 0
-37 -6 -46 -22 -7 -13 -24 -35 -38 -49 -14 -15 -39 -43 -56 -63 -16 -20 -54
-62 -82 -94 -43 -47 -53 -64 -53 -94 0 -37 -11 -55 -82 -128 -20 -20 -28 -38
-28 -64 0 -25 -9 -45 -30 -69 -21 -25 -30 -45 -30 -70 0 -27 -8 -44 -30 -67
-29 -30 -30 -33 -30 -132 0 -95 -2 -104 -25 -128 l-26 -27 0 -368 0 -368 26
-27 c22 -23 25 -35 25 -96 0 -65 2 -72 30 -99 23 -22 30 -38 30 -65 0 -27 8
-45 30 -68 23 -24 30 -41 30 -70 0 -28 6 -44 25 -60 19 -16 25 -32 25 -62 0
-28 7 -46 24 -62 13 -13 79 -88 146 -168 67 -80 130 -152 139 -160 9 -8 24
-27 34 -42 13 -22 25 -28 52 -28 27 0 39 -7 61 -35 21 -28 33 -35 60 -35 25 0
38 -7 54 -30 17 -23 29 -30 55 -30 27 0 39 -6 52 -27 23 -37 32 -43 70 -43 26
0 36 -6 48 -30 l16 -30 144 0 c155 0 146 2 193 -54 9 -11 30 -16 71 -16 55 0
60 2 85 35 l27 35 149 0 149 0 16 30 c15 29 18 30 80 30 59 0 66 2 82 27 23
37 32 43 70 43 26 0 36 6 48 30 13 24 22 30 50 30 19 0 40 7 48 17 8 9 27 31
43 50 16 19 41 46 55 61 14 15 31 37 38 50 8 16 21 22 44 22 47 0 117 79 117
132 0 26 7 44 24 60 13 13 51 55 85 95 50 58 61 79 61 107 0 26 8 44 30 66 22
23 30 40 30 67 0 27 8 45 28 66 24 26 27 34 24 92 -2 59 0 67 28 98 l30 35 0
134 0 134 30 29 c29 28 30 31 30 130 0 99 -1 102 -30 130 l-30 29 0 172 0 173
-27 21 c-26 20 -28 27 -29 97 -1 67 -4 77 -28 99 -19 19 -26 34 -26 64 0 28
-7 45 -24 62 -64 60 -95 109 -94 144 1 26 -6 42 -26 62 -28 28 -61 65 -111
126 -16 19 -47 54 -67 76 -21 23 -65 75 -99 116 -54 65 -66 74 -95 74 -26 0
-38 7 -51 28 -10 15 -27 34 -38 43 -32 27 -27 92 10 128 17 16 44 46 60 66 57
69 53 67 129 65 103 -3 104 -3 121 30 l16 30 374 0 c326 0 376 2 389 16 13 13
16 43 16 175 0 92 -4 169 -10 180 -11 19 -42 19 -1828 19 -1401 0 -1821 -3
-1830 -12z m2293 -720 c58 -69 70 -89 75 -127 5 -45 6 -46 45 -49 47 -4 69
-26 54 -53 -8 -16 -22 -19 -74 -19 -59 0 -65 -2 -85 -30 -15 -22 -30 -30 -51
-30 -17 0 -36 -8 -46 -20 -10 -11 -30 -33 -44 -48 -14 -15 -65 -73 -112 -129
-74 -86 -87 -107 -87 -137 0 -26 -8 -44 -30 -66 -28 -29 -30 -36 -30 -106 0
-71 -1 -75 -26 -85 -28 -10 -64 -3 -76 15 -4 6 -8 27 -8 47 0 26 -8 45 -30 67
-22 24 -30 41 -30 69 0 37 -35 85 -132 183 -14 14 -30 35 -37 48 -9 16 -21 22
-46 22 -19 0 -40 7 -47 16 -21 26 -72 85 -90 105 -10 10 -30 19 -44 19 -26 0
-104 68 -104 91 0 5 17 30 37 55 29 35 44 44 68 44 40 0 55 16 55 58 0 65 11
72 108 72 95 0 99 2 125 43 l17 27 288 0 287 0 70 -82z m267 -447 c10 -1 24
-14 33 -31 13 -24 22 -30 49 -30 29 0 41 -9 90 -67 31 -38 63 -74 71 -81 8 -7
15 -29 15 -51 0 -29 7 -46 30 -69 l30 -32 0 -160 0 -159 -32 -38 c-37 -44 -73
-84 -109 -121 -14 -15 -31 -37 -38 -49 -9 -17 -21 -23 -46 -23 -27 0 -39 -7
-57 -30 -27 -37 -41 -38 -62 -5 -9 14 -23 25 -31 25 -9 0 -20 -11 -25 -25 -12
-33 -47 -33 -59 -1 -12 29 -29 36 -94 36 l-52 0 -67 80 c-56 65 -68 86 -68
115 0 25 -7 41 -25 57 -14 12 -25 29 -25 38 0 9 11 26 25 38 32 28 31 33 -5
65 -30 27 -30 29 -30 127 0 96 1 100 30 132 16 18 42 48 57 66 15 17 42 47 58
66 17 19 36 41 43 50 7 9 28 16 47 16 28 0 37 6 50 29 8 16 22 31 32 33 15 3
114 2 165 -1z m-1102 -161 c46 -55 90 -102 97 -104 8 -3 13 -22 13 -45 0 -30
7 -49 30 -74 17 -19 30 -37 30 -39 0 -3 -13 -19 -30 -36 -29 -31 -30 -34 -30
-134 0 -94 -2 -103 -24 -127 -85 -90 -86 -92 -86 -129 0 -45 -14 -62 -52 -62
-26 0 -39 -10 -76 -54 -10 -13 -35 -16 -127 -16 l-114 0 -27 35 c-20 27 -34
35 -58 35 -45 0 -106 73 -111 133 -3 30 -11 47 -30 60 -23 17 -25 25 -25 93 0
67 -3 77 -25 98 -14 13 -25 31 -25 41 0 9 11 26 25 37 20 15 25 28 25 63 0 35
5 47 25 62 19 13 27 30 30 60 5 60 66 133 111 133 24 0 38 8 58 35 l27 35 142
0 143 0 84 -100z m438 -502 c7 -7 12 -29 12 -50 0 -28 7 -45 30 -68 22 -22 30
-40 30 -66 0 -28 11 -49 61 -107 34 -40 72 -82 85 -95 17 -16 24 -34 24 -62 0
-28 -7 -46 -24 -62 -13 -13 -51 -55 -84 -94 -51 -60 -61 -78 -64 -115 -2 -34
-7 -45 -22 -47 -24 -5 -36 14 -36 61 0 27 -7 43 -25 59 -19 17 -25 31 -25 65
0 34 6 48 25 65 20 17 25 31 25 69 0 57 -15 69 -82 69 -56 0 -77 -16 -84 -61
-5 -30 -1 -41 25 -72 l32 -35 -3 -109 c-3 -102 -4 -108 -25 -111 -13 -2 -23 3
-27 15 -4 10 -31 45 -60 78 -30 33 -67 75 -82 93 -16 18 -41 45 -56 60 -16 14
-28 30 -28 35 0 15 74 97 92 103 10 3 18 13 18 22 0 9 25 43 55 75 47 50 55
63 55 97 0 59 50 96 58 42 2 -11 10 -26 19 -33 13 -11 17 -10 29 5 17 24 2 56
-26 56 -17 0 -20 7 -20 53 0 61 11 77 55 77 17 0 36 -5 43 -12z m-1228 -85 c4
-69 9 -85 30 -107 14 -14 38 -40 53 -58 15 -18 40 -47 55 -64 15 -17 47 -54
71 -82 37 -43 50 -52 78 -52 26 0 36 -6 48 -29 8 -16 24 -32 35 -36 11 -4 79
-5 150 -4 73 2 134 -1 139 -7 4 -5 50 -58 101 -119 51 -60 102 -120 114 -132
12 -12 37 -41 56 -64 19 -23 47 -55 63 -71 20 -21 27 -39 27 -67 0 -27 7 -44
25 -61 18 -17 25 -34 25 -62 0 -31 7 -45 30 -66 27 -25 29 -33 32 -107 3 -74
5 -80 26 -83 12 -2 22 1 22 7 0 6 14 25 30 43 27 28 30 37 30 100 0 62 3 71
30 100 22 23 30 41 30 68 0 30 9 46 55 96 43 46 55 66 55 92 0 52 16 72 55 72
41 0 65 29 65 78 0 24 8 42 28 61 53 54 92 101 92 111 0 5 13 10 29 10 43 0
60 9 77 41 l15 29 147 0 147 0 95 112 c52 62 107 126 122 143 39 44 75 87 96
114 12 16 25 22 35 18 15 -6 17 -35 17 -286 l0 -279 -27 -20 c-27 -20 -28 -23
-29 -126 -1 -101 -2 -108 -27 -134 -19 -20 -27 -39 -27 -65 0 -27 -8 -44 -30
-67 -22 -22 -30 -40 -30 -66 0 -35 -22 -67 -136 -194 -55 -61 -93 -105 -118
-134 -15 -17 -39 -45 -54 -62 -36 -42 -90 -106 -103 -121 -5 -7 -25 -13 -44
-13 -28 0 -37 -6 -50 -30 -18 -34 -49 -45 -101 -36 -32 6 -39 3 -68 -28 -30
-33 -37 -36 -89 -36 -39 0 -60 -5 -69 -16 -47 -57 -33 -54 -241 -54 -105 0
-197 4 -202 8 -6 4 -18 19 -28 35 -17 26 -20 27 -112 27 l-94 0 -16 30 c-13
24 -22 30 -50 30 -27 0 -39 7 -61 35 -20 27 -34 35 -58 35 -23 0 -38 8 -57 31
-16 20 -38 34 -61 38 -31 5 -53 26 -163 156 -70 83 -138 160 -151 173 -17 16
-24 34 -24 62 0 29 -7 45 -25 62 -17 16 -26 37 -29 67 -3 31 -12 51 -30 68
-23 21 -26 31 -26 97 0 68 -2 74 -30 99 l-30 27 0 174 0 174 -25 16 c-14 9
-25 25 -25 35 0 10 11 26 25 35 25 16 25 18 25 160 0 78 3 146 7 150 4 4 16 6
28 4 18 -3 21 -12 25 -85z"/>
<path d="M4092 3004 c-21 -15 -22 -21 -22 -184 0 -140 3 -171 16 -184 8 -9 22
-16 30 -16 12 0 14 33 14 200 0 110 -3 200 -8 200 -4 0 -18 -7 -30 -16z"/>
</g>
</svg>
